# xmcd
#
# Track frame offsets:
#	150
#	25565
#	43017
#	62332
#	77905
#	95486
#	111639
#	127141
#	142897
#	158614
#	172707
#	187127
#	197852
#
# Disc length: 3224 seconds
#
# Revision: 1
# Processed by: cddbd v1.5.2PL0 Copyright (c) Steve Scherf et al.
# Submitted via: audiograbber 1.83.01
#
DISCID=ac0c960d
DTITLE=Willie Nelson - Moment of forever
DYEAR=2008
DGENRE=Blues
TTITLE0=Over you again
TTITLE1=Moment of forever
TTITLE2=The bob song
TTITLE3=Lousiana
TTITLE4=Gravedigger
TTITLE5=Keep me from blowing away
TTITLE6=Takin on water
TTITLE7=Always now
TTITLE8=I'm alive
TTITLE9=When I was young and grandma wasn't old
TTITLE10=Worry be gone
TTITLE11=You don't think I'm funny anymore
TTITLE12=Gotta serve somebody
EXTD=UMG Recordings
EXTT0=
EXTT1=
EXTT2=
EXTT3=
EXTT4=
EXTT5=
EXTT6=
EXTT7=
EXTT8=
EXTT9=
EXTT10=
EXTT11=
EXTT12=
PLAYORDER=
